<svg width="133" height="19" viewBox="0 0 133 19" fill="none" xmlns="http://www.w3.org/2000/svg">
<path d="M7.90211 0.794922L0.00195312 18.5768H4.63127L6.17358 14.8691H13.8708L15.4131 18.5768H20.1427L12.1661 0.794922H7.90211ZM7.6371 11.3499L10.0222 5.61523L12.4073 11.3499H7.6371Z" fill="#5B00EF"/>
<path d="M34.9104 9.27046C35.4141 8.93382 35.8319 8.5184 36.1614 8.02658C36.6317 7.32228 36.8681 6.48427 36.8681 5.53406C36.8681 4.11112 36.2832 2.94842 35.13 2.07938C33.996 1.22705 32.2985 0.794922 30.0805 0.794922H21.3877V18.5768H30.5747C32.8882 18.5768 34.674 18.1423 35.8797 17.2852C37.1116 16.409 37.7347 15.1747 37.7347 13.6181C37.7347 12.5676 37.4793 11.6651 36.9755 10.9369C36.4742 10.2111 35.7794 9.65245 34.9127 9.27285L34.9104 9.27046ZM33.2272 13.1955C33.2272 13.8401 32.9956 14.2985 32.5229 14.6017C32.0215 14.9216 31.2742 15.084 30.3025 15.084H25.8451V11.2855H30.3025C31.2742 11.2855 32.0215 11.4478 32.5229 11.7678C32.998 12.0686 33.2272 12.5365 33.2272 13.1979V13.1955ZM31.692 7.42017C31.2145 7.73054 30.5055 7.88811 29.5863 7.88811H25.8451V4.2878H29.5863C30.5079 4.2878 31.2169 4.4406 31.6944 4.74381C32.1433 5.0303 32.3629 5.46482 32.3629 6.07602C32.3629 6.68721 32.1433 7.12889 31.692 7.42017Z" fill="#5B00EF"/>
<path d="M53.2462 13.0161C52.6947 13.6631 52.0597 14.1621 51.3578 14.5011C50.6606 14.8378 49.8942 15.0097 49.0753 15.0097C48.3018 15.0097 47.5832 14.8784 46.9409 14.6181C46.2987 14.3603 45.7352 13.9902 45.2649 13.5223C44.797 13.0519 44.4269 12.4885 44.1691 11.8463C43.9088 11.2016 43.7775 10.4759 43.7775 9.6856C43.7775 8.89534 43.9088 8.16955 44.1691 7.52493C44.4269 6.8827 44.797 6.31925 45.2649 5.84892C45.7352 5.37859 46.2987 5.01092 46.9409 4.75307C47.5855 4.49522 48.3042 4.36152 49.0777 4.36152C49.8942 4.36152 50.663 4.52865 51.3601 4.85812C52.0597 5.18759 52.6924 5.68419 53.2462 6.33119L53.4062 6.5198L56.35 3.82673L56.2067 3.65244C55.3615 2.62105 54.2991 1.82841 53.0505 1.29839C51.8066 0.768374 50.4028 0.500977 48.8772 0.500977C47.5211 0.500977 46.239 0.727787 45.0715 1.17186C43.9017 1.61832 42.8679 2.26293 42.0012 3.089C41.1322 3.91507 40.4494 4.89871 39.9695 6.00888C39.4896 7.12145 39.2461 8.36055 39.2461 9.68798C39.2461 11.0154 39.4896 12.2545 39.9695 13.3671C40.4494 14.4796 41.1298 15.4609 41.9893 16.287C42.8488 17.113 43.8778 17.7577 45.0477 18.2041C46.2151 18.6482 47.4948 18.875 48.8533 18.875C50.3956 18.875 51.8066 18.6028 53.0505 18.0656C54.2991 17.5261 55.3615 16.7286 56.2067 15.6996L56.35 15.5254L53.4062 12.8323L53.2462 13.0209V13.0161Z" fill="#5B00EF"/>
<path d="M78.6754 13.4333L81.9796 1.70605H85.0475L79.9741 17.9624H77.5437L73.3895 5.67643L69.2353 17.9624H66.8048L61.7314 1.70605H64.7994L68.1036 13.4333L72.1862 1.70605H74.5928L78.6754 13.4333Z" fill="#5B00EF"/>
<path d="M97.4053 6.37357V17.9624H94.5499V15.9664C93.8647 17.1506 92.308 18.2417 90.2548 18.2417C86.7619 18.2417 84.3076 15.5009 84.3076 12.1799C84.3076 8.85893 86.7619 6.09424 90.2548 6.09424C92.308 6.09424 93.9124 7.13995 94.5021 8.3695V6.37119H97.4053V6.37357ZM90.8206 15.8256C92.7784 15.8256 94.4305 14.4098 94.4305 12.1799C94.4305 9.95001 92.7784 8.51036 90.8206 8.51036C88.6958 8.51036 87.28 10.1601 87.28 12.1799C87.28 14.1997 88.6958 15.8256 90.8206 15.8256Z" fill="#5B00EF"/>
<path d="M100.316 17.9594V1.0083H103.289V17.9618H100.316V17.9594Z" fill="#5B00EF"/>
<path d="M106.2 17.9594V1.0083H109.173V17.9618H106.2V17.9594Z" fill="#5B00EF"/>
<path d="M114.493 13.1536C114.682 14.8964 115.816 16.0806 117.915 16.0806C119.354 16.0806 120.465 15.4527 121.03 14.5717H123.79C122.988 16.6393 120.722 18.2413 117.915 18.2413C113.904 18.2413 111.566 15.6174 111.566 12.158C111.566 8.69854 114.138 6.09619 117.774 6.09619C121.41 6.09619 123.957 8.62692 123.957 12.2034V13.156H114.493V13.1536ZM114.47 11.2269H121.123C120.935 9.43866 119.732 8.18523 117.819 8.18523C115.907 8.18523 114.704 9.34555 114.467 11.2269H114.47Z" fill="#5B00EF"/>
<path d="M126.983 2.91113H129.956V6.37058H133V8.78671H129.956V14.0583C129.956 15.2663 130.428 15.8011 131.584 15.8011C132.08 15.8011 132.482 15.708 132.883 15.5934V17.9379C132.505 18.0788 131.562 18.2411 130.806 18.2411C128.022 18.2411 126.983 16.5914 126.983 13.9222V8.7891H124.789V6.37297H126.983V2.91352V2.91113Z" fill="#5B00EF"/>
</svg>
